<?xml version="1.0" standalone="no"?><!DOCTYPE svg PUBLIC "-//W3C//DTD SVG 1.1//EN" "http://www.w3.org/Graphics/SVG/1.1/DTD/svg11.dtd"><svg t="1562862710679" class="icon" viewBox="0 0 1024 1024" version="1.1" xmlns="http://www.w3.org/2000/svg" p-id="2727" xmlns:xlink="http://www.w3.org/1999/xlink" width="32" height="32"><defs><style type="text/css"></style></defs><path d="M526.876444 457.102222l119.950223-119.324444-23.466667-97.080889a14.222222 14.222222 0 0 1 3.726222-13.368889l137.244445-138.126222a14.222222 14.222222 0 0 1 23.893333 6.684444l27.392 113.208889 112.64 26.851556a14.222222 14.222222 0 0 1 6.826667 23.864889l-137.301334 138.183111a14.222222 14.222222 0 0 1-13.368889 3.811555l-97.848888-23.324444-119.552 118.926222A56.974222 56.974222 0 0 1 512 568.888889a56.888889 56.888889 0 1 1 14.876444-111.786667z m98.673778 62.321778l78.677334-78.250667 57.372444 13.653334a256 256 0 1 1-191.459556-192.227556l13.880889 57.457778-78.819555 78.364444a113.777778 113.777778 0 1 0 120.32 121.002667z m4.380445-432.355556a28.444444 28.444444 0 1 1-15.189334 54.812445A384.398222 384.398222 0 0 0 512 128C299.918222 128 128 299.918222 128 512S299.918222 896 512 896 896 724.081778 896 512c0-34.275556-4.494222-67.925333-13.255111-100.380444a28.444444 28.444444 0 0 1 54.926222-14.819556c10.069333 37.262222 15.217778 75.889778 15.217778 115.2 0 243.484444-197.404444 440.888889-440.888889 440.888889-243.484444 0-440.888889-197.404444-440.888889-440.888889C71.111111 268.515556 268.515556 71.111111 512 71.111111c40.248889 0 79.815111 5.404444 117.930667 15.928889z" p-id="2728" fill="#E85529"></path></svg>